<mxfile host="65bd71144e">
    <diagram id="fmEPCrcAMLsokTtu_gAn" name="Page-1">
        <mxGraphModel dx="5228" dy="2404" grid="0" gridSize="10" guides="1" tooltips="1" connect="1" arrows="1" fold="1" page="0" pageScale="1" pageWidth="827" pageHeight="1169" math="0" shadow="0">
            <root>
                <mxCell id="0"/>
                <mxCell id="1" parent="0"/>
                <mxCell id="60" value="" style="whiteSpace=wrap;html=1;rounded=0;glass=0;labelBackgroundColor=none;fontSize=24;fontColor=#ffffff;strokeColor=#3A5431;strokeWidth=3;fillColor=#6d8764;" parent="1" vertex="1">
                    <mxGeometry x="237.61" y="-7" width="582.39" height="304.75" as="geometry"/>
                </mxCell>
                <mxCell id="8" value="" style="whiteSpace=wrap;html=1;rounded=0;fontSize=24;fillColor=#cdeb8b;strokeColor=#36393d;" parent="1" vertex="1">
                    <mxGeometry x="-515" y="-11.75" width="643" height="309.5" as="geometry"/>
                </mxCell>
                <mxCell id="6" value="HttpClient" style="whiteSpace=wrap;html=1;fontSize=24;dashed=1;rounded=1;fillColor=#f5f5f5;fontColor=#333333;strokeColor=#6666FF;strokeWidth=3;" parent="1" vertex="1">
                    <mxGeometry x="-452" y="103" width="198" height="80" as="geometry"/>
                </mxCell>
                <mxCell id="10" value="" style="edgeStyle=none;html=1;dashed=1;fontSize=24;endArrow=block;endFill=1;strokeWidth=3;fillColor=#ffe6cc;strokeColor=#d79b00;endSize=12;" parent="1" source="9" target="6" edge="1">
                    <mxGeometry relative="1" as="geometry"/>
                </mxCell>
                <mxCell id="9" value="&lt;font color=&quot;#000000&quot;&gt;RemoteLinkValidation&lt;/font&gt;" style="whiteSpace=wrap;html=1;rounded=1;fontSize=24;fillColor=#fff2cc;strokeColor=#d6b656;strokeWidth=3;" parent="1" vertex="1">
                    <mxGeometry x="-167" y="101" width="257" height="84" as="geometry"/>
                </mxCell>
                <mxCell id="11" value="" style="whiteSpace=wrap;html=1;rounded=0;fontSize=24;fillColor=#fff2cc;strokeColor=#d6b656;" parent="1" vertex="1">
                    <mxGeometry x="-515" y="-387" width="643" height="302" as="geometry"/>
                </mxCell>
                <mxCell id="15" style="edgeStyle=none;html=1;entryX=0.5;entryY=0;entryDx=0;entryDy=0;dashed=1;fontSize=24;endArrow=block;endFill=1;strokeWidth=3;fillColor=#f8cecc;strokeColor=#b85450;endSize=12;" parent="1" source="13" target="6" edge="1">
                    <mxGeometry relative="1" as="geometry">
                        <Array as="points">
                            <mxPoint x="-208" y="-51"/>
                            <mxPoint x="-353" y="-51"/>
                        </Array>
                    </mxGeometry>
                </mxCell>
                <mxCell id="17" style="edgeStyle=none;html=1;entryX=1;entryY=0.5;entryDx=0;entryDy=0;fontSize=24;endArrow=open;endFill=0;strokeWidth=3;endSize=12;fillColor=#f8cecc;strokeColor=#b85450;" parent="1" source="13" target="16" edge="1">
                    <mxGeometry relative="1" as="geometry"/>
                </mxCell>
                <mxCell id="13" value="&lt;font color=&quot;#000000&quot;&gt;AxiosHttpClient&lt;/font&gt;" style="whiteSpace=wrap;html=1;rounded=1;fontSize=24;fillColor=#fad9d5;strokeColor=#ae4132;strokeWidth=3;" parent="1" vertex="1">
                    <mxGeometry x="-337" y="-278" width="257" height="84" as="geometry"/>
                </mxCell>
                <mxCell id="16" value="Axios" style="whiteSpace=wrap;html=1;rounded=1;fontSize=24;fillColor=#f5f5f5;fontColor=#333333;strokeColor=#666666;" parent="1" vertex="1">
                    <mxGeometry x="-825" y="-278" width="257" height="84" as="geometry"/>
                </mxCell>
                <mxCell id="18" value="" style="whiteSpace=wrap;html=1;rounded=0;fontSize=24;fillColor=#cce5ff;strokeColor=#6666FF;strokeWidth=3;" parent="1" vertex="1">
                    <mxGeometry x="-505" y="381" width="643" height="264" as="geometry"/>
                </mxCell>
                <mxCell id="19" value="&lt;font color=&quot;#000000&quot;&gt;LinkValidation&lt;/font&gt;" style="whiteSpace=wrap;html=1;rounded=1;fontSize=24;dashed=1;fillColor=#eeeeee;strokeColor=#CC99FF;strokeWidth=3;" parent="1" vertex="1">
                    <mxGeometry x="-312.5" y="483" width="258" height="60" as="geometry"/>
                </mxCell>
                <mxCell id="20" style="edgeStyle=none;html=1;fontSize=24;endArrow=block;endFill=1;endSize=12;strokeWidth=3;dashed=1;entryX=0.5;entryY=0;entryDx=0;entryDy=0;fillColor=#ffe6cc;strokeColor=#d79b00;" parent="1" source="9" target="19" edge="1">
                    <mxGeometry relative="1" as="geometry">
                        <Array as="points">
                            <mxPoint x="-44" y="323"/>
                            <mxPoint x="-184" y="323"/>
                        </Array>
                    </mxGeometry>
                </mxCell>
                <mxCell id="42" value="" style="whiteSpace=wrap;html=1;rounded=0;fontSize=24;fillColor=#ffe6cc;strokeColor=#FFFF99;strokeWidth=3;" parent="1" vertex="1">
                    <mxGeometry x="236" y="380" width="588" height="264" as="geometry"/>
                </mxCell>
                <mxCell id="43" value="&lt;font color=&quot;#000000&quot;&gt;ForgotPasswordPage&lt;/font&gt;" style="whiteSpace=wrap;html=1;rounded=0;fontSize=24;fillColor=#cdeb8b;strokeColor=#36393d;" parent="1" vertex="1">
                    <mxGeometry x="245" y="490" width="261" height="60" as="geometry"/>
                </mxCell>
                <mxCell id="44" style="edgeStyle=none;html=1;entryX=0.5;entryY=0;entryDx=0;entryDy=0;fontSize=11;startArrow=diamondThin;startFill=0;endArrow=open;endFill=0;strokeWidth=3;strokeColor=#999999;sketch=0;jumpStyle=none;endSize=18;startSize=18;exitX=0;exitY=0.5;exitDx=0;exitDy=0;rounded=0;targetPerimeterSpacing=12;" parent="1" source="62" target="43" edge="1">
                    <mxGeometry relative="1" as="geometry">
                        <mxPoint x="534.7493540532796" y="179" as="sourcePoint"/>
                        <Array as="points">
                            <mxPoint x="376" y="334"/>
                        </Array>
                    </mxGeometry>
                </mxCell>
                <mxCell id="46" style="edgeStyle=none;html=1;entryX=1;entryY=0.5;entryDx=0;entryDy=0;fontSize=24;startArrow=none;startFill=0;endArrow=open;endFill=0;startSize=18;endSize=14;strokeWidth=4;strokeColor=#666666;exitX=0;exitY=0.5;exitDx=0;exitDy=0;dashed=1;" parent="1" source="59" target="9" edge="1">
                    <mxGeometry relative="1" as="geometry">
                        <mxPoint x="416" y="136.32973580663293" as="sourcePoint"/>
                    </mxGeometry>
                </mxCell>
                <mxCell id="49" value="Presentation" style="text;html=1;align=center;verticalAlign=middle;resizable=0;points=[];autosize=1;strokeColor=none;fillColor=none;fontSize=24;" parent="1" vertex="1">
                    <mxGeometry x="685" y="340" width="145" height="33" as="geometry"/>
                </mxCell>
                <mxCell id="55" value="&lt;font style=&quot;font-size: 24px&quot;&gt;Domain&lt;/font&gt;" style="text;html=1;align=center;verticalAlign=middle;resizable=0;points=[];autosize=1;strokeColor=none;fillColor=none;fontSize=36;fontColor=#F0F0F0;" parent="1" vertex="1">
                    <mxGeometry x="45" y="325" width="93" height="51" as="geometry"/>
                </mxCell>
                <mxCell id="57" value="Data" style="text;html=1;align=center;verticalAlign=middle;resizable=0;points=[];autosize=1;strokeColor=none;fillColor=none;fontSize=24;fontColor=#F0F0F0;" parent="1" vertex="1">
                    <mxGeometry x="67" y="-53" width="61" height="33" as="geometry"/>
                </mxCell>
                <mxCell id="58" value="Infra" style="text;html=1;align=center;verticalAlign=middle;resizable=0;points=[];autosize=1;strokeColor=none;fillColor=none;fontSize=24;fontColor=#F0F0F0;" parent="1" vertex="1">
                    <mxGeometry x="70" y="-434" width="58" height="33" as="geometry"/>
                </mxCell>
                <mxCell id="59" value="&lt;span style=&quot;color: rgb(0 , 0 , 0)&quot;&gt;ValidationLinkProxy&lt;/span&gt;" style="whiteSpace=wrap;html=1;rounded=0;glass=0;labelBackgroundColor=none;fontSize=24;fontColor=#333333;strokeColor=#666666;strokeWidth=3;fillColor=#f5f5f5;" parent="1" vertex="1">
                    <mxGeometry x="399" y="108.5" width="271" height="69" as="geometry"/>
                </mxCell>
                <mxCell id="61" value="Main" style="text;html=1;align=center;verticalAlign=middle;resizable=0;points=[];autosize=1;strokeColor=none;fillColor=none;fontSize=24;fontColor=#F0F0F0;" parent="1" vertex="1">
                    <mxGeometry x="758" y="-43" width="62" height="33" as="geometry"/>
                </mxCell>
                <mxCell id="66" style="edgeStyle=none;html=1;entryX=0.5;entryY=0;entryDx=0;entryDy=0;startArrow=diamondThin;startFill=0;endArrow=open;endFill=0;endSize=18;startSize=18;strokeWidth=3;strokeColor=#999999;rounded=0;targetPerimeterSpacing=12;" parent="1" source="62" target="64" edge="1">
                    <mxGeometry relative="1" as="geometry">
                        <Array as="points">
                            <mxPoint x="690" y="334"/>
                        </Array>
                    </mxGeometry>
                </mxCell>
                <mxCell id="62" value="&lt;font style=&quot;font-size: 24px&quot; color=&quot;#000000&quot;&gt;&lt;b&gt;ValidLink&lt;/b&gt;&lt;/font&gt;" style="rhombus;whiteSpace=wrap;html=1;fillColor=#FF0000;fontColor=#ffffff;strokeColor=#6F0000;strokeWidth=4;" parent="1" vertex="1">
                    <mxGeometry x="444.5" y="257" width="180" height="154" as="geometry"/>
                </mxCell>
                <mxCell id="63" value="" style="edgeStyle=none;html=1;entryX=0.5;entryY=0;entryDx=0;entryDy=0;fontSize=24;startArrow=diamond;startFill=1;endArrow=open;endFill=0;strokeWidth=3;strokeColor=#000000;sketch=0;jumpStyle=none;endSize=18;startSize=14;exitX=0.5;exitY=1;exitDx=0;exitDy=0;" parent="1" source="59" target="62" edge="1">
                    <mxGeometry relative="1" as="geometry">
                        <mxPoint x="466.75" y="177.5" as="sourcePoint"/>
                        <mxPoint x="375.5" y="490" as="targetPoint"/>
                        <Array as="points"/>
                    </mxGeometry>
                </mxCell>
                <mxCell id="64" value="&lt;font color=&quot;#000000&quot;&gt;ErrorPage&lt;/font&gt;" style="whiteSpace=wrap;html=1;rounded=0;fontSize=24;fillColor=#cdeb8b;strokeColor=#36393d;" parent="1" vertex="1">
                    <mxGeometry x="559" y="490" width="261" height="60" as="geometry"/>
                </mxCell>
                <mxCell id="69" style="edgeStyle=none;html=1;endArrow=none;endFill=0;dashed=1;" edge="1" parent="1" source="68">
                    <mxGeometry relative="1" as="geometry">
                        <mxPoint x="374" y="330" as="targetPoint"/>
                        <Array as="points">
                            <mxPoint x="174" y="330"/>
                        </Array>
                    </mxGeometry>
                </mxCell>
                <mxCell id="68" value="&lt;font color=&quot;#000000&quot;&gt;&lt;span style=&quot;font-size: 24px&quot;&gt;savePasswordChangeInfo&lt;/span&gt;&lt;span style=&quot;font-size: 24px&quot;&gt;('email.and.hash', {email, hash})&lt;/span&gt;&lt;/font&gt;" style="shape=note;whiteSpace=wrap;html=1;backgroundOutline=1;darkOpacity=0.05;rounded=1;fillColor=#eeeeee;strokeColor=#36393d;" vertex="1" parent="1">
                    <mxGeometry x="-208" y="724" width="772" height="62" as="geometry"/>
                </mxCell>
            </root>
        </mxGraphModel>
    </diagram>
</mxfile>
